<svg xmlns="http://www.w3.org/2000/svg" viewBox="0 0 560 300" style="display:block;max-width:100%">

  <!-- Background -->
  <rect width="560" height="300" rx="13" fill="#0d1117"/>

  <!-- Title bar -->
  <rect width="560" height="44" rx="13" fill="#161b22"/>
  <rect y="32" width="560" height="12" fill="#161b22"/>
  <circle cx="24" cy="22" r="7" fill="#f85149"/>
  <circle cx="47" cy="22" r="7" fill="#d29922"/>
  <circle cx="70" cy="22" r="7" fill="#3fb950"/>
  <text x="280" y="27" text-anchor="middle" font-family="'SF Mono',Monaco,Consolas,monospace" font-size="12" fill="#8b949e" letter-spacing="0.4">context-governor · session in progress</text>

  <!-- CONTEXT BAR -->
  <text x="38" y="78" font-family="'SF Mono',Monaco,Consolas,monospace" font-size="12" fill="#58a6ff">● context usage</text>

  <!-- Track -->
  <rect x="38" y="90" width="310" height="22" rx="5" fill="#21262d"/>

  <!-- Fill bar -->
  <rect x="38" y="90" height="22" rx="5">
    <animate attributeName="width" values="0;0;155;155;186;186;186;186;0;0"
      keyTimes="0;0.04;0.38;0.42;0.60;0.65;0.78;0.92;0.97;1"
      dur="14s" repeatCount="indefinite" calcMode="spline"
      keySplines="0 0 1 1;0.4 0 0.6 1;0 0 1 1;0.4 0 0.6 1;0 0 1 1;0 0 1 1;0 0 1 1;0 0 1 1;0 0 1 1"/>
    <animate attributeName="fill" values="#3fb950;#3fb950;#3fb950;#d29922;#f85149;#f85149;#f85149;#3fb950;#3fb950;#3fb950"
      keyTimes="0;0.04;0.38;0.46;0.60;0.65;0.78;0.88;0.97;1"
      dur="14s" repeatCount="indefinite"/>
  </rect>

  <!-- 50% dashed marker -->
  <line x1="193" y1="87" x2="193" y2="116" stroke="#d29922" stroke-width="1.5" stroke-dasharray="3,2"/>
  <text x="193" y="126" text-anchor="middle" font-family="monospace" font-size="10" fill="#d29922">50%</text>

  <!-- 60% dashed marker -->
  <line x1="224" y1="87" x2="224" y2="116" stroke="#f85149" stroke-width="1.5" stroke-dasharray="3,2"/>
  <text x="224" y="126" text-anchor="middle" font-family="monospace" font-size="10" fill="#f85149">60%</text>

  <!-- STATUS MESSAGES -->
  <text x="38" y="152" font-family="'SF Mono',Monaco,Consolas,monospace" font-size="12" fill="#3fb950">
    <animate attributeName="opacity" values="1;1;0;0;0;0;0;0;1;1" keyTimes="0;0.34;0.39;0.62;0.65;0.82;0.86;0.93;0.97;1" dur="14s" repeatCount="indefinite"/>
    ✓ budget ok — tools running normally
  </text>
  <text x="38" y="152" font-family="'SF Mono',Monaco,Consolas,monospace" font-size="12" fill="#d29922">
    <animate attributeName="opacity" values="0;0;1;1;0;0;0;0;0;0" keyTimes="0;0.36;0.41;0.57;0.63;0.82;0.86;0.93;0.97;1" dur="14s" repeatCount="indefinite"/>
    ⚠  50% — finish slice in flight, start nothing new
  </text>
  <text x="38" y="152" font-family="'SF Mono',Monaco,Consolas,monospace" font-size="12" fill="#f85149">
    <animate attributeName="opacity" values="0;0;0;0;1;1;0;0;0;0" keyTimes="0;0.57;0.60;0.63;0.66;0.76;0.82;0.93;0.97;1" dur="14s" repeatCount="indefinite"/>
    🛑 60% — STOP. Park step. Write the ledger.
  </text>
  <text x="38" y="152" font-family="'SF Mono',Monaco,Consolas,monospace" font-size="12" fill="#3fb950">
    <animate attributeName="opacity" values="0;0;0;0;0;0;1;1;0;0" keyTimes="0;0.57;0.60;0.75;0.78;0.82;0.86;0.92;0.97;1" dur="14s" repeatCount="indefinite"/>
    ✓ handoff written → next session bootstrapped
  </text>

  <!-- ROBOT CHARACTER -->
  <!-- Antenna -->
  <line x1="458" y1="56" x2="458" y2="76" stroke="#58a6ff" stroke-width="2.5" stroke-linecap="round"/>
  <circle cx="458" cy="50" r="7" fill="#58a6ff">
    <animate attributeName="fill"
      values="#58a6ff;#58a6ff;#d29922;#d29922;#f85149;#f85149;#3fb950;#3fb950;#58a6ff;#58a6ff"
      keyTimes="0;0.36;0.41;0.57;0.60;0.76;0.82;0.93;0.97;1"
      dur="14s" repeatCount="indefinite"/>
  </circle>

  <!-- Head -->
  <rect x="430" y="76" width="56" height="52" rx="9" fill="#21262d" stroke="#30363d" stroke-width="1.5"/>

  <!-- State 1: Calm -->
  <g>
    <animate attributeName="opacity" values="1;1;0;0;0;0;0;0;1;1" keyTimes="0;0.34;0.41;0.62;0.65;0.80;0.86;0.93;0.97;1" dur="14s" repeatCount="indefinite"/>
    <circle cx="448" cy="97" r="8" fill="#58a6ff"/>
    <circle cx="468" cy="97" r="8" fill="#58a6ff"/>
    <circle cx="450" cy="97" r="4" fill="#0d1117"/>
    <circle cx="470" cy="97" r="4" fill="#0d1117"/>
    <circle cx="451" cy="95" r="1.8" fill="white" opacity="0.9"/>
    <circle cx="471" cy="95" r="1.8" fill="white" opacity="0.9"/>
    <path d="M 444 114 Q 458 122 472 114" stroke="#3fb950" stroke-width="2.5" fill="none" stroke-linecap="round"/>
  </g>

  <!-- State 2: Worried -->
  <g>
    <animate attributeName="opacity" values="0;0;1;1;0;0;0;0;0;0" keyTimes="0;0.38;0.43;0.58;0.63;0.80;0.86;0.93;0.97;1" dur="14s" repeatCount="indefinite"/>
    <ellipse cx="448" cy="97" rx="8" ry="10" fill="#d29922"/>
    <ellipse cx="468" cy="97" rx="8" ry="10" fill="#d29922"/>
    <circle cx="448" cy="98" r="4" fill="#0d1117"/>
    <circle cx="468" cy="98" r="4" fill="#0d1117"/>
    <path d="M 438 79 L 433 89 Q 431 93 434 96 Q 437 99 440 96 Q 443 93 441 89 Z" fill="#58a6ff" opacity="0.75"/>
    <path d="M 444 116 L 472 116" stroke="#d29922" stroke-width="2.5" stroke-linecap="round"/>
  </g>

  <!-- State 3: Alarm -->
  <g>
    <animate attributeName="opacity" values="0;0;0;0;1;1;0;0;0;0" keyTimes="0;0.57;0.60;0.63;0.66;0.80;0.86;0.93;0.97;1" dur="14s" repeatCount="indefinite"/>
    <line x1="441" y1="89" x2="455" y2="103" stroke="#f85149" stroke-width="3.5" stroke-linecap="round"/>
    <line x1="455" y1="89" x2="441" y2="103" stroke="#f85149" stroke-width="3.5" stroke-linecap="round"/>
    <line x1="461" y1="89" x2="475" y2="103" stroke="#f85149" stroke-width="3.5" stroke-linecap="round"/>
    <line x1="475" y1="89" x2="461" y2="103" stroke="#f85149" stroke-width="3.5" stroke-linecap="round"/>
    <ellipse cx="458" cy="116" rx="7" ry="6" fill="#f85149"/>
    <ellipse cx="458" cy="116" rx="4" ry="3.5" fill="#0d1117"/>
  </g>

  <!-- State 4: Relieved -->
  <g>
    <animate attributeName="opacity" values="0;0;0;0;0;0;1;1;0;0" keyTimes="0;0.57;0.60;0.75;0.78;0.82;0.86;0.93;0.97;1" dur="14s" repeatCount="indefinite"/>
    <path d="M 440 99 Q 448 90 456 99" stroke="#3fb950" stroke-width="2.5" fill="none" stroke-linecap="round"/>
    <path d="M 460 99 Q 468 90 476 99" stroke="#3fb950" stroke-width="2.5" fill="none" stroke-linecap="round"/>
    <path d="M 442 112 Q 458 124 474 112" stroke="#3fb950" stroke-width="2.5" fill="none" stroke-linecap="round"/>
  </g>

  <!-- Body -->
  <rect x="432" y="132" width="52" height="52" rx="7" fill="#21262d" stroke="#30363d" stroke-width="1.5"/>
  <rect x="440" y="140" width="36" height="22" rx="4" fill="#1f6feb"/>
  <text x="458" y="153" text-anchor="middle" font-family="monospace" font-size="9" font-weight="bold" fill="white" letter-spacing="0.5">CTX</text>
  <text x="458" y="163" text-anchor="middle" font-family="monospace" font-size="7" fill="#cdd9e5" letter-spacing="1">COP</text>

  <!-- Left arm -->
  <rect x="416" y="134" width="16" height="36" rx="8" fill="#21262d" stroke="#30363d" stroke-width="1.5">
    <animate attributeName="y" values="134;134;114;114;134;134;134;134;134;134" keyTimes="0;0.34;0.41;0.62;0.66;0.75;0.82;0.93;0.97;1" dur="14s" repeatCount="indefinite"/>
    <animate attributeName="height" values="36;36;56;56;36;36;36;36;36;36" keyTimes="0;0.34;0.41;0.62;0.66;0.75;0.82;0.93;0.97;1" dur="14s" repeatCount="indefinite"/>
  </rect>

  <!-- Right arm -->
  <rect x="484" y="134" width="16" height="36" rx="8" fill="#21262d" stroke="#30363d" stroke-width="1.5">
    <animate attributeName="y" values="134;134;134;134;108;108;134;134;134;134" keyTimes="0;0.34;0.41;0.62;0.66;0.75;0.82;0.93;0.97;1" dur="14s" repeatCount="indefinite"/>
    <animate attributeName="height" values="36;36;36;36;62;62;36;36;36;36" keyTimes="0;0.34;0.41;0.62;0.66;0.75;0.82;0.93;0.97;1" dur="14s" repeatCount="indefinite"/>
  </rect>

  <!-- Warning flag -->
  <g>
    <animate attributeName="opacity" values="0;0;1;1;0;0;0;0;0;0" keyTimes="0;0.38;0.43;0.60;0.65;0.80;0.86;0.93;0.97;1" dur="14s" repeatCount="indefinite"/>
    <polygon points="408,90 424,100 408,110" fill="#d29922"/>
    <text x="404" y="82" font-family="monospace" font-size="18">⚠️</text>
  </g>

  <!-- STOP sign -->
  <g>
    <animate attributeName="opacity" values="0;0;0;0;1;1;0;0;0;0" keyTimes="0;0.57;0.60;0.63;0.66;0.80;0.86;0.93;0.97;1" dur="14s" repeatCount="indefinite"/>
    <polygon points="497,60 511,60 519,68 519,82 511,90 497,90 489,82 489,68" fill="#f85149"/>
    <text x="504" y="80" text-anchor="middle" font-family="monospace" font-size="9" font-weight="bold" fill="white" letter-spacing="0.3">STOP</text>
  </g>

  <!-- Checkmark -->
  <text x="504" y="82" text-anchor="middle" font-family="monospace" font-size="28" fill="#3fb950">
    <animate attributeName="opacity" values="0;0;0;0;0;0;1;1;0;0" keyTimes="0;0.57;0.60;0.75;0.78;0.82;0.86;0.92;0.97;1" dur="14s" repeatCount="indefinite"/>
    ✓
  </text>

  <!-- Legs -->
  <rect x="439" y="184" width="15" height="30" rx="7.5" fill="#21262d" stroke="#30363d" stroke-width="1.5"/>
  <rect x="462" y="184" width="15" height="30" rx="7.5" fill="#21262d" stroke="#30363d" stroke-width="1.5"/>
  <rect x="435" y="209" width="22" height="10" rx="5" fill="#30363d"/>
  <rect x="458" y="209" width="22" height="10" rx="5" fill="#30363d"/>

  <!-- Footer -->
  <rect x="0" y="268" width="560" height="32" rx="0" fill="#161b22"/>
  <rect x="0" y="268" width="560" height="8" fill="#161b22"/>
  <rect x="0" y="288" width="560" height="12" rx="12" fill="#161b22"/>
  <text x="38" y="287" font-family="'SF Mono',Monaco,Consolas,monospace" font-size="11" fill="#6e7681">warn: 50%  ·  handoff: 60%  ·  model-aware (1M / 200K)  ·  stdlib only</text>
  <text x="522" y="287" text-anchor="end" font-family="'SF Mono',Monaco,Consolas,monospace" font-size="11" fill="#3fb950">MIT</text>

</svg>
